<?xml version="1.0" encoding="utf-8"?>
<!-- Generator: Adobe Illustrator 16.0.0, SVG Export Plug-In . SVG Version: 6.00 Build 0)  -->
<!DOCTYPE svg PUBLIC "-//W3C//DTD SVG 1.1//EN" "http://www.w3.org/Graphics/SVG/1.1/DTD/svg11.dtd" [
	<!ENTITY ns_extend "http://ns.adobe.com/Extensibility/1.0/">
	<!ENTITY ns_ai "http://ns.adobe.com/AdobeIllustrator/10.0/">
	<!ENTITY ns_graphs "http://ns.adobe.com/Graphs/1.0/">
	<!ENTITY ns_vars "http://ns.adobe.com/Variables/1.0/">
	<!ENTITY ns_imrep "http://ns.adobe.com/ImageReplacement/1.0/">
	<!ENTITY ns_sfw "http://ns.adobe.com/SaveForWeb/1.0/">
	<!ENTITY ns_custom "http://ns.adobe.com/GenericCustomNamespace/1.0/">
	<!ENTITY ns_adobe_xpath "http://ns.adobe.com/XPath/1.0/">
]>
<svg version="1.1" id="Layer_1" xmlns:x="&ns_extend;" xmlns:i="&ns_ai;" xmlns:graph="&ns_graphs;"
	 xmlns="http://www.w3.org/2000/svg" xmlns:xlink="http://www.w3.org/1999/xlink" x="0px" y="0px" width="190.969px"
	 height="54.505px" viewBox="-9.961 0 190.969 54.505" enable-background="new -9.961 0 190.969 54.505" xml:space="preserve">
<metadata>
	<sfw  xmlns="&ns_sfw;">
		<slices></slices>
		<sliceSourceBounds  width="199.78" height="49.897" x="191.367" y="261.843" bottomLeftOrigin="true"></sliceSourceBounds>
	</sfw>
</metadata>
<path fill="#1D1E1C" d="M70.432,18.812c-0.506,0.662-1.914,1.419-3.617,1.419c-2.411-0.013-3.981-1.423-3.981-3.791
	c0-2.346,1.533-3.762,4.055-3.762c1.112,0,2.312,0.218,2.989,0.548v1.917h-0.093c-0.41-1.526-1.378-1.991-2.53-1.991
	c-1.694,0-2.581,1.234-2.581,3.359c0,2.007,0.812,3.242,2.301,3.242c0.762,0,1.497-0.363,1.718-1.104l0.018-1.454
	c0-0.305-0.201-0.476-0.531-0.476h-0.172v-0.106h3.108v0.106h-0.154c-0.34,0-0.529,0.171-0.529,0.478V18.812z"/>
<path fill="#1D1E1C" d="M83.762,16.458c0,2.326-1.714,3.772-4.276,3.772c-2.552,0-4.267-1.446-4.267-3.772
	c0-2.337,1.712-3.778,4.267-3.778C82.048,12.68,83.762,14.121,83.762,16.458 M81.905,16.458c0-2.045-0.95-3.304-2.421-3.304
	c-1.461,0-2.417,1.259-2.417,3.304c0,2.034,0.956,3.295,2.417,3.295C80.958,19.753,81.905,18.492,81.905,16.458"/>
<path fill="#1D1E1C" d="M95.416,12.832v0.121h-0.092c-0.313,0-0.688,0.172-0.919,0.617l-2.456,5.185
	c-0.084,0.183-0.528,1.123-0.563,1.474h-0.107l-3.209-6.637c-0.238-0.461-0.6-0.639-0.916-0.639h-0.086v-0.121h3.537v0.112h-0.092
	c-0.273,0-0.582,0.247-0.414,0.685l1.691,3.926l1.724-3.926c0.181-0.436-0.13-0.685-0.403-0.685h-0.1v-0.112H95.416z"/>
<path fill="#1D1E1C" d="M104.726,20.07h-0.028H99.05v-0.122h0.146c0.355,0,0.646-0.271,0.654-0.63v-5.737
	c-0.005-0.361-0.295-0.631-0.652-0.631H99.05v-0.12h4.249c0.453-0.002,1.063-0.107,1.251-0.185v1.925h-0.126v-0.111
	c0-0.695-0.398-1.133-1.097-1.145h-1.737v2.927h1.371c0.568-0.011,0.922-0.414,0.922-0.956v-0.076h0.125v2.555h-0.125v-0.085
	c0-0.536-0.346-0.938-0.906-0.954h-1.387v2.862h1.451c1.021-0.011,1.72-0.67,2.035-1.735h0.117L104.726,20.07z"/>
<path fill="#1D1E1C" d="M113.083,12.832c1.337,0,2.634,0.474,2.634,1.974c0,0.85-0.489,1.782-1.677,1.951
	c0.479,0.146,0.938,0.657,1.163,1.029c0.102,0.183,0.454,0.779,0.877,1.341c0.469,0.641,0.742,0.819,1.24,0.821v0.124h-1.012
	c-1.311,0-1.929-0.254-2.502-1.157c-0.266-0.431-0.698-1.24-0.808-1.645c-0.203-0.504-0.5-0.723-0.723-0.741v-0.101h0.311
	c0.5-0.007,1.051-0.193,1.253-1.207c0.022-0.097,0.049-0.269,0.04-0.504c-0.053-1.189-0.866-1.364-1.282-1.381
	c-0.311-0.017-0.553,0-0.689-0.007v5.982c0.002,0.402,0.334,0.639,0.658,0.639h0.131v0.123h-3.322v-0.123h0.142
	c0.347,0,0.634-0.27,0.644-0.629v-5.743c-0.007-0.361-0.289-0.626-0.635-0.626h-0.15v-0.121H113.083z"/>
<path fill="#1D1E1C" d="M129.458,12.832v0.121h-0.207c-0.358,0-0.645,0.256-0.665,0.6v5.272c0,0.842,0.132,1.403,0.132,1.403h-0.107
	l-5.546-4.881v3.989c0.011,0.35,0.302,0.614,0.665,0.614h0.202v0.123h-3.373v-0.123h0.197c0.364,0,0.661-0.265,0.663-0.614v-5.305
	c0-0.817-0.135-1.366-0.135-1.366l0.119,0.002l5.53,4.867V13.57c-0.004-0.353-0.292-0.617-0.658-0.617h-0.202v-0.121H129.458z"/>
<path fill="#1D1E1C" d="M142.063,16.458c0,2.326-1.711,3.772-4.272,3.772c-2.554,0-4.269-1.446-4.269-3.772
	c0-2.337,1.713-3.778,4.269-3.778C140.351,12.68,142.063,14.121,142.063,16.458 M140.207,16.458c0-2.045-0.947-3.304-2.419-3.304
	c-1.462,0-2.421,1.259-2.421,3.304c0,2.034,0.959,3.295,2.421,3.295C139.26,19.753,140.207,18.492,140.207,16.458"/>
<path fill="#1D1E1C" d="M156.962,12.832c2.588,0,4.143,1.35,4.143,3.626c0,2.268-1.555,3.614-4.143,3.614h-4.075v-0.121h0.147
	c0.37,0,0.672-0.291,0.677-0.654v-5.716c-0.018-0.366-0.315-0.631-0.689-0.631h-0.144v-0.118H156.962z M155.459,19.59h1.362
	c1.509,0,2.442-1.167,2.442-3.13c0-1.974-0.93-3.154-2.442-3.154h-1.362V19.59z"/>
<path fill="#1D1E1C" d="M170.955,20.07h-0.029h-5.646v-0.122h0.144c0.354,0,0.646-0.271,0.655-0.63v-5.737
	c-0.008-0.361-0.298-0.631-0.655-0.631h-0.144v-0.12h4.247c0.454-0.002,1.062-0.107,1.253-0.185v1.925h-0.128v-0.111
	c0-0.695-0.397-1.133-1.097-1.145h-1.738v2.927h1.373c0.568-0.011,0.92-0.414,0.92-0.956v-0.076h0.128v2.555h-0.128v-0.085
	c0-0.536-0.343-0.938-0.904-0.954h-1.389v2.862h1.452c1.021-0.011,1.721-0.67,2.035-1.735h0.119L170.955,20.07z"/>
<path fill="#1D1E1C" d="M97.266,24.07v0.283h-0.489c-0.847,0-1.56,0.595-1.56,1.411v12.66c0,2.085,0.336,3.096,0.336,3.096h-0.248
	L83.323,31.465v7.997c0.034,0.835,0.703,1.431,1.56,1.431h0.476v0.29h-9.649v-0.29h0.458c0.859,0,1.562-0.596,1.562-1.431V26.716
	c0-1.927-0.333-3.014-0.333-3.014h0.242l11.956,10.086v-7.989c0-0.835-0.677-1.437-1.529-1.437h-0.493v-0.288h9.693V24.07z"/>
<path fill="#1D1E1C" d="M116.945,38.393c-1.117,1.484-4.795,3.128-8.82,3.128c-5.741,0-9.438-3.3-9.438-8.941
	c0-5.55,3.552-8.849,9.722-8.849c2.637,0,5.945,0.486,7.338,1.021l-0.406,4.854h-0.203c-1.053-3.795-3.371-4.578-5.285-4.578
	c-3.765,0-5.344,2.795-5.344,7.828c0,4.572,1.271,7.375,4.238,7.375c1.422,0,2.927-0.933,2.666-2.69v-3.214
	c0-0.716-0.46-1.118-1.209-1.118h-0.407v-0.228h8.705v0.228h-0.347c-0.777,0-1.209,0.402-1.209,1.118V38.393z"/>
<path fill="#1D1E1C" d="M141.111,32.64c0,5.626-3.882,8.883-10.408,8.883c-6.496,0-10.379-3.257-10.379-8.883
	c0-5.657,3.883-8.909,10.379-8.909C137.229,23.73,141.111,26.982,141.111,32.64 M135.256,32.64c0-4.831-1.542-7.616-4.551-7.616
	c-2.979,0-4.551,2.785-4.551,7.616c0,4.801,1.573,7.588,4.551,7.588C133.714,40.229,135.256,37.44,135.256,32.64"/>
<path fill="#1D1E1C" d="M157.439,41.179h-0.055h-14.537v-0.284h0.311c0.791,0,1.478-0.633,1.478-1.497v-13.57
	c-0.009-0.853-0.685-1.476-1.474-1.476h-0.313v-0.284h9.196v0.284h-0.313c-0.822,0-1.479,0.633-1.507,1.493v14.009h2.753
	c2.189,0,4.286-1.687,4.995-4.663h0.286L157.439,41.179z"/>
<path fill="#1D1E1C" d="M176.527,39.44c0.533,1.059,1.447,1.454,2.221,1.454h0.211v0.284h-10.011v-0.284h0.223
	c0.653,0,1.385-0.495,0.967-1.45l-0.824-1.886h-5.297l-0.854,1.957c-0.355,0.908,0.363,1.383,1.002,1.383h0.223v0.284h-5.888v-0.284
	h0.227c0.714,0,1.658-0.38,2.171-1.387l5.864-12.687c0.331-0.723,1.376-2.946,1.482-3.791h0.228L176.527,39.44z M168.748,36.262
	l-2.084-4.775l-2.084,4.775H168.748z"/>
<path fill="#1D1E1C" d="M73.344,39.44c0.532,1.059,1.444,1.454,2.22,1.454h0.212v0.284H65.762v-0.284h0.225
	c0.655,0,1.385-0.495,0.965-1.45l-0.824-1.886h-5.294l-0.857,1.957c-0.354,0.908,0.364,1.383,1.002,1.383h0.225v0.284h-5.889v-0.284
	h0.229c0.713,0,1.656-0.38,2.169-1.387l5.863-12.687c0.33-0.723,1.376-2.946,1.484-3.791h0.225L73.344,39.44z M65.562,36.262
	l-2.083-4.775l-2.082,4.775H65.562z"/>
<path fill="#1D1E1C" d="M33.25,4.018c-0.271-0.956-1.429-1.727-2.59-1.723H11.524c1.16-0.004,2.318,0.844,2.589,1.795l16.656,47.822
	h20.118L33.25,4.018z"/>
<g>
	<g>
		<defs>
			<path id="SVGID_1_" d="M23.108,33.28c-3.682,0-5.817,1.449-8.989,3.562C7.901,40.98,1.862,47.67-2.354,51
				c-0.849,0.675-1.13,0.847-2.033,0.912h19.501c2.478,0,13.064-10.519,22.736-15.793c2.161-1.179,4.727-2.396,6.348-2.839H23.108z"
				/>
		</defs>
		<clipPath id="SVGID_2_">
			<use xlink:href="#SVGID_1_"  overflow="visible"/>
		</clipPath>
		
			<linearGradient id="SVGID_3_" gradientUnits="userSpaceOnUse" x1="-460.8213" y1="-188.2046" x2="-458.6187" y2="-188.2046" gradientTransform="matrix(-0.1168 -8.4598 8.4598 0 1558.3735 -3846.54)">
			<stop  offset="0" style="stop-color:#F19001"/>
			<stop  offset="0.1852" style="stop-color:#FDC300"/>
			<stop  offset="0.5143" style="stop-color:#F19001"/>
			<stop  offset="0.5898" style="stop-color:#F19001"/>
			<stop  offset="0.9231" style="stop-color:#FFDC04"/>
			<stop  offset="1" style="stop-color:#FDC300"/>
		</linearGradient>
		<polygon clip-path="url(#SVGID_2_)" fill="url(#SVGID_3_)" points="-4.389,51.912 -4.645,33.28 44.197,33.28 44.453,51.912 		"/>
	</g>
</g>
<g>
	<g>
		<defs>
			<path id="SVGID_4_" d="M9.056,3.978c0,0-15.442,42.801-15.795,43.92c-0.46,1.453-0.336,4.014,2.797,4.014H14.87
				c-3.073,0-2.011-3.141-2.011-3.141L28.196,4.056c0.262-0.958,1.414-1.725,2.571-1.723l-19.138-0.08c-0.002,0-0.004,0-0.01,0
				C10.462,2.255,9.315,3.024,9.056,3.978"/>
		</defs>
		<clipPath id="SVGID_5_">
			<use xlink:href="#SVGID_4_"  overflow="visible"/>
		</clipPath>
		
			<linearGradient id="SVGID_6_" gradientUnits="userSpaceOnUse" x1="-463.0483" y1="-197.5913" x2="-460.846" y2="-197.5913" gradientTransform="matrix(-6.1893 22.5482 26.6502 0.0847 2418.4863 10459.9707)">
			<stop  offset="0" style="stop-color:#BD1823"/>
			<stop  offset="0.0148" style="stop-color:#CB2929"/>
			<stop  offset="0.04" style="stop-color:#E94F37"/>
			<stop  offset="0.08" style="stop-color:#BD1823"/>
			<stop  offset="0.494" style="stop-color:#CE121D"/>
			<stop  offset="0.8801" style="stop-color:#E10B17"/>
			<stop  offset="0.9492" style="stop-color:#BD1823"/>
			<stop  offset="1" style="stop-color:#BD1823"/>
		</linearGradient>
		<polygon clip-path="url(#SVGID_5_)" fill="url(#SVGID_6_)" points="-7.167,2.135 -20.821,51.871 30.733,52.032 44.384,2.297 		"/>
	</g>
</g>
</svg>
